<svg width="24" height="24" viewBox="0 0 24 24" fill="none" xmlns="http://www.w3.org/2000/svg">
<path d="M12.48 20.38C11.4491 20.3799 10.4365 20.1083 9.54397 19.5926C8.65141 19.0769 7.9104 18.3352 7.39547 17.4422C6.88055 16.5492 6.60987 15.5363 6.61066 14.5055C6.61145 13.4747 6.88368 12.4622 7.39998 11.57V11.57L11.76 3.99999C11.834 3.87345 11.9399 3.76849 12.0671 3.69555C12.1943 3.62261 12.3384 3.58423 12.485 3.58423C12.6316 3.58423 12.7757 3.62261 12.9029 3.69555C13.03 3.76849 13.1359 3.87345 13.21 3.99999L17.57 11.55C18.0867 12.4429 18.3589 13.4563 18.3593 14.488C18.3597 15.5197 18.0881 16.5332 17.572 17.4265C17.0559 18.3198 16.3134 19.0613 15.4195 19.5763C14.5255 20.0913 13.5117 20.3616 12.48 20.36V20.38Z" stroke="#7359DC" stroke-width="1.2" stroke-linecap="round" stroke-linejoin="round"/>
<path d="M15.44 13.57C15.6141 14.2021 15.5764 14.8738 15.3326 15.4824C15.0888 16.091 14.6523 16.6029 14.09 16.94" stroke="#7359DC" stroke-width="1.2" stroke-linecap="round" stroke-linejoin="round"/>
</svg>
